<?xml version="1.0" standalone="no"?>
<!DOCTYPE svg PUBLIC "-//W3C//DTD SVG 20010904//EN"
 "http://www.w3.org/TR/2001/REC-SVG-20010904/DTD/svg10.dtd">
<svg version="1.0" xmlns="http://www.w3.org/2000/svg"
 width="1024.000000pt" height="1024.000000pt" viewBox="0 0 1024.000000 1024.000000"
 preserveAspectRatio="xMidYMid meet">

<g transform="translate(0.000000,1024.000000) scale(0.100000,-0.100000)"
fill="#000000" stroke="none">
<path d="M2735 8443 c-525 -65 -979 -197 -1142 -330 -62 -50 -99 -110 -132
-211 -16 -49 -48 -118 -71 -153 -54 -83 -189 -359 -278 -569 -352 -835 -599
-1856 -671 -2770 -38 -483 -14 -975 64 -1282 95 -375 248 -640 444 -767 78
-50 180 -90 381 -148 228 -66 345 -62 452 16 111 82 171 207 563 1181 257 639
316 768 421 927 65 97 122 149 224 202 147 77 116 75 905 61 507 -10 969 -11
1675 -5 1550 14 1492 15 1572 -16 203 -79 301 -184 452 -487 68 -137 111 -235
364 -852 274 -666 344 -822 412 -918 106 -151 240 -185 486 -122 250 64 361
108 471 186 176 125 334 416 418 769 187 784 7 2263 -428 3516 -152 436 -361
908 -487 1099 -20 30 -48 92 -63 138 -31 95 -68 154 -129 207 -148 127 -637
269 -1108 321 -188 21 -259 13 -367 -42 l-72 -36 -303 21 c-1198 83 -2208 82
-3426 -5 l-232 -17 -58 31 c-100 54 -209 71 -337 55z"/>
</g>
</svg>
