<?xml version="1.0" standalone="no"?>
<!DOCTYPE svg PUBLIC "-//W3C//DTD SVG 20010904//EN"
 "http://www.w3.org/TR/2001/REC-SVG-20010904/DTD/svg10.dtd">
<svg version="1.0" xmlns="http://www.w3.org/2000/svg"
 width="1024.000000pt" height="1024.000000pt" viewBox="0 0 1024.000000 1024.000000"
 preserveAspectRatio="xMidYMid meet">

<g transform="translate(0.000000,1024.000000) scale(0.100000,-0.100000)"
fill="#000000" stroke="none">
<path d="M2680 8454 c-14 -3 -81 -14 -148 -25 -235 -39 -496 -111 -740 -205
-191 -74 -259 -133 -319 -274 -15 -36 -93 -195 -173 -355 -168 -334 -234 -490
-372 -880 -153 -432 -241 -760 -347 -1305 -163 -834 -198 -1557 -106 -2138 59
-369 162 -625 318 -788 90 -95 180 -155 318 -210 284 -114 541 -146 675 -83
62 30 146 109 188 177 45 75 143 309 277 664 188 498 352 894 456 1103 112
224 254 355 453 417 89 27 -6 26 1460 14 754 -7 1200 -6 1685 3 748 15 741 15
893 -59 131 -65 227 -164 320 -332 64 -116 305 -696 457 -1103 274 -731 316
-810 474 -884 52 -24 65 -26 191 -25 117 1 151 5 250 31 141 37 304 100 388
150 231 137 381 405 466 833 54 272 61 363 61 805 -1 358 -3 436 -23 619 -31
284 -62 483 -121 796 -101 528 -188 859 -335 1277 -146 416 -219 588 -405 963
-75 151 -149 303 -164 337 -55 122 -133 185 -307 251 -385 146 -801 238 -1034
230 -124 -4 -189 -26 -258 -87 l-36 -31 -183 19 c-1056 113 -2469 112 -3669
-3 l-145 -14 -34 30 c-19 17 -60 43 -91 57 -48 23 -69 26 -175 27 -66 1 -131
0 -145 -2z m266 -163 c23 -10 59 -38 82 -61 l41 -43 223 22 c1204 115 2502
115 3670 0 l216 -22 32 36 c17 20 56 48 86 63 53 26 59 26 182 21 267 -11 775
-142 1014 -261 l83 -41 148 -295 c173 -345 218 -442 299 -645 165 -411 315
-868 393 -1200 83 -350 186 -963 222 -1315 25 -251 25 -918 0 -1104 -77 -565
-215 -858 -464 -988 -139 -73 -444 -158 -564 -158 -87 1 -168 58 -227 162 -33
57 -130 295 -235 578 -218 584 -442 1118 -543 1291 -50 85 -200 235 -289 287
-39 23 -102 53 -141 66 -142 48 -163 49 -891 35 -490 -9 -956 -9 -1683 -3
-1376 12 -1362 12 -1439 -9 -87 -24 -171 -58 -238 -98 -80 -48 -205 -169 -260
-251 -105 -159 -306 -629 -607 -1421 -186 -488 -224 -555 -350 -619 -54 -28
-146 -21 -329 26 -242 62 -348 115 -462 230 -122 124 -202 293 -258 547 -57
257 -78 483 -78 839 0 505 47 930 170 1540 70 347 83 400 155 656 137 483 333
999 511 1344 47 91 121 237 164 325 43 88 87 168 97 177 34 30 166 86 336 142
401 133 820 199 934 147z"/>
</g>
</svg>
